<?xml version="1.0" encoding="UTF-8" standalone="no"?>
<svg
   xmlns:dc="http://purl.org/dc/elements/1.1/"
   xmlns:cc="http://creativecommons.org/ns#"
   xmlns:rdf="http://www.w3.org/1999/02/22-rdf-syntax-ns#"
   xmlns:svg="http://www.w3.org/2000/svg"
   xmlns="http://www.w3.org/2000/svg"
   xmlns:sodipodi="http://sodipodi.sourceforge.net/DTD/sodipodi-0.dtd"
   xmlns:inkscape="http://www.inkscape.org/namespaces/inkscape"
   viewBox="0 0 418.49189 164.78189"
   height="164.78189"
   width="418.49188"
   xml:space="preserve"
   version="1.1"
   id="svg2"
   inkscape:version="0.91pre4 r13712"
   sodipodi:docname="marca-direction.svg"><sodipodi:namedview
     pagecolor="#ffffff"
     bordercolor="#666666"
     borderopacity="1"
     objecttolerance="10"
     gridtolerance="10"
     guidetolerance="10"
     inkscape:pageopacity="0"
     inkscape:pageshadow="2"
     inkscape:window-width="640"
     inkscape:window-height="480"
     id="namedview3504"
     showgrid="false"
     inkscape:zoom="0.51"
     inkscape:cx="106.86492"
     inkscape:cy="72.690909"
     inkscape:window-x="1686"
     inkscape:window-y="199"
     inkscape:window-maximized="1"
     inkscape:current-layer="g12"
     fit-margin-top="0"
     fit-margin-left="0"
     fit-margin-right="0"
     fit-margin-bottom="0"
     showborder="true" /><metadata
     id="metadata8"><rdf:RDF><cc:Work
         rdf:about=""><dc:format>image/svg+xml</dc:format><dc:type
           rdf:resource="http://purl.org/dc/dcmitype/StillImage" /><dc:title></dc:title></cc:Work></rdf:RDF></metadata><defs
     id="defs6"><clipPath
       id="clipPath18"
       clipPathUnits="userSpaceOnUse"><path
         id="path20"
         d="m 0,0 3138.69,0 0,4854 L 0,4854 0,0 Z"
         inkscape:connector-curvature="0" /></clipPath><clipPath
       id="clipPath28"
       clipPathUnits="userSpaceOnUse"><path
         id="path30"
         d="M 480.328,82.4609 393.57,129.621 c 333.539,418.41 374.758,557.91 377.008,565.289 L 857.25,647.66 C 855.09,640.371 813.871,500.781 480.328,82.4609"
         inkscape:connector-curvature="0" /></clipPath><clipPath
       id="clipPath38"
       clipPathUnits="userSpaceOnUse"><path
         id="path40"
         d="m 638.551,1161.92 c 28.89,-15.75 57.777,-31.41 86.668,-47.16 130.051,-70.74 266.672,-210.6 132.031,-467.1 l -86.672,47.25 c 134.551,256.41 -2.066,396.36 -132.027,467.01"
         inkscape:connector-curvature="0" /></clipPath><clipPath
       id="clipPath48"
       clipPathUnits="userSpaceOnUse"><path
         id="path50"
         d="m 935.73,1168.76 c 28.891,-15.66 57.782,-31.41 86.67,-47.16 -107.189,58.32 -265.322,80.64 -448.47,58.86 l -86.668,47.25 c 183.058,21.69 341.187,-0.54 448.468,-58.95"
         inkscape:connector-curvature="0" /></clipPath><clipPath
       id="clipPath58"
       clipPathUnits="userSpaceOnUse"><path
         id="path60"
         d="m 0,0 0,4854 3139,0 L 3139,0 0,0 Z"
         inkscape:connector-curvature="0" /></clipPath><clipPath
       id="clipPath68"
       clipPathUnits="userSpaceOnUse"><path
         id="path70"
         d="m 557.371,1177.85 -86.762,47.16 c 1.711,0.54 4.411,0.81 7.2,1.17 l 86.671,-47.16 c -2.699,-0.45 -5.402,-0.63 -7.109,-1.17"
         inkscape:connector-curvature="0" /></clipPath><clipPath
       id="clipPath78"
       clipPathUnits="userSpaceOnUse"><path
         id="path80"
         d="m 0,0 0,4854 3139,0 L 3139,0 0,0 Z"
         inkscape:connector-curvature="0" /></clipPath><clipPath
       id="clipPath88"
       clipPathUnits="userSpaceOnUse"><path
         id="path90"
         d="m 143.82,7.94141 c 0.278,0.57812 0.539,1.1289 0.813,1.69921 L 479.16,56.0898 c 0,0 215.582,130.6722 462.363,421.6802 C 715.305,209 501.703,65.2617 488.43,56.3594 L 146.141,8.26953 143.82,7.94141 M 504.391,118.672 c 277.597,351.637 339.968,496.289 351.992,529.457 1.535,4.23 2.25,6.652 2.488,7.449 23.774,45.301 39.082,86.922 47.469,125.133 62.726,285.849 -262.215,381.099 -334.301,399.119 -81.5,-128.33 -127.453,-214.26 -146.605,-285.111 -29.731,-109.969 5.093,-183.61 71.816,-323.02 39.438,-82.449 47.754,-172.078 41.453,-253.328 -2.281,-29.41 -6.476,-57.73 -11.805,-84.191 -7.613,-37.809 -17.535,-71.86 -27.496,-100.008 10.446,79.758 -0.242,207.156 -151.824,405.398 -160.109,209.34 -93.418,459.18 -76.769,590.22 -20.414,-26.43 -47.907,-65.93 -75.356,-112.67 36.281,62.27 69.367,106.21 75.891,114.86 0.297,0.39 0.543,0.71 0.726,0.96 l 275.356,50.3 16.027,2.93 12.098,2.21 c 46.281,5.5 91.027,8.19 133.703,8.19 89.738,0 170.586,-11.88 238.617,-34.42 C 1107.53,1109.26 1196.58,997.578 1164.65,842.57 1152.64,784.289 1123.53,719.922 1074.64,650.219 1317.71,1018.64 1038.39,1150.8 865.262,1181.72 1262.63,733.84 585.707,167.012 504.391,118.672 M 143.27,539.66 c -23.95,30.43 -44.7036,64.559 -51.9184,113.852 -2.2188,15.187 -3.1641,30.699 -3.0078,46.398 0.1601,-12.558 1.125,-24.879 3.0078,-36.859 8.2226,-52.563 28.7734,-90.012 51.9184,-123.391"
         inkscape:connector-curvature="0" /></clipPath><radialGradient
       id="radialGradient92"
       spreadMethod="pad"
       gradientTransform="matrix(568.483,0,0,-568.483,629.712,602.26)"
       gradientUnits="userSpaceOnUse"
       r="1"
       cy="0"
       cx="0"
       fy="0"
       fx="0"><stop
         id="stop94"
         offset="0"
         style="stop-opacity:1;stop-color:#7fcc28" /><stop
         id="stop96"
         offset="1"
         style="stop-opacity:1;stop-color:#005d3c" /></radialGradient><clipPath
       id="clipPath104"
       clipPathUnits="userSpaceOnUse"><path
         id="path106"
         d="m 0,0 0,4854 3139,0 L 3139,0 0,0 Z"
         inkscape:connector-curvature="0" /></clipPath><clipPath
       id="clipPath124"
       clipPathUnits="userSpaceOnUse"><path
         id="path126"
         d="M 144.633,9.64062 C 193.656,111.809 221.477,190.59 234.465,253.02 c 34.769,167.05 -36.543,217.199 -91.195,286.64 -23.145,33.379 -43.6958,70.828 -51.9184,123.391 -1.8828,11.98 -2.8477,24.301 -3.0078,36.859 0.2382,24.031 3.0507,48.5 7.8242,72.981 17.266,88.531 60.137,177.05 99.285,244.229 27.449,46.74 54.942,86.24 75.356,112.67 C 254.16,998.75 187.469,748.91 347.578,539.57 499.16,341.328 509.848,213.93 499.402,134.172 c -5.968,-16.871 -11.949,-31.621 -17.453,-43.7931 1.344,1.6914 2.692,3.3828 4.028,5.0508 6.246,7.8513 12.375,15.5903 18.414,23.2423 81.316,48.34 758.239,615.168 360.871,1063.048 173.128,-30.92 452.448,-163.08 209.378,-531.501 -0.64,-0.91 -1.29,-1.828 -1.93,-2.739 C 1029.41,586.289 985.234,529.691 941.523,477.77 694.742,186.762 479.16,56.0898 479.16,56.0898 L 144.633,9.64062"
         inkscape:connector-curvature="0" /></clipPath><radialGradient
       id="radialGradient128"
       spreadMethod="pad"
       gradientTransform="matrix(568.483,0,0,-568.483,629.712,602.26)"
       gradientUnits="userSpaceOnUse"
       r="1"
       cy="0"
       cx="0"
       fy="0"
       fx="0"><stop
         id="stop130"
         offset="0"
         style="stop-opacity:1;stop-color:#299735" /><stop
         id="stop132"
         offset="1"
         style="stop-opacity:1;stop-color:#004f32" /></radialGradient><clipPath
       id="clipPath140"
       clipPathUnits="userSpaceOnUse"><path
         id="path142"
         d="m 0,0 0,4854 3139,0 L 3139,0 0,0 Z"
         inkscape:connector-curvature="0" /></clipPath><clipPath
       id="clipPath218"
       clipPathUnits="userSpaceOnUse"><path
         id="path220"
         d="m 1161.9,3700.91 -86.76,47.16 c 333.54,418.32 374.76,557.91 377.01,565.2 l 86.67,-47.16 c -2.16,-7.38 -43.38,-146.88 -376.92,-565.2"
         inkscape:connector-curvature="0" /></clipPath><clipPath
       id="clipPath228"
       clipPathUnits="userSpaceOnUse"><path
         id="path230"
         d="m 1320.12,4780.37 c 28.89,-15.75 57.78,-31.5 86.67,-47.16 130.05,-70.74 266.67,-210.6 132.03,-467.1 l -86.67,47.16 c 134.55,256.5 -2.07,396.36 -132.03,467.1"
         inkscape:connector-curvature="0" /></clipPath><clipPath
       id="clipPath238"
       clipPathUnits="userSpaceOnUse"><path
         id="path240"
         d="m 0,0 0,4854 3139,0 L 3139,0 0,0 Z"
         inkscape:connector-curvature="0" /></clipPath><clipPath
       id="clipPath244"
       clipPathUnits="userSpaceOnUse"><path
         id="path246"
         d="m 1617.3,4787.21 c 28.89,-15.75 57.78,-31.5 86.67,-47.16 -107.19,58.32 -265.32,80.55 -448.47,58.86 l -86.67,47.16 c 183.06,21.78 341.19,-0.54 448.47,-58.86"
         inkscape:connector-curvature="0" /></clipPath><clipPath
       id="clipPath254"
       clipPathUnits="userSpaceOnUse"><path
         id="path256"
         d="m 0,0 0,4854 3139,0 L 3139,0 0,0 Z"
         inkscape:connector-curvature="0" /></clipPath><clipPath
       id="clipPath264"
       clipPathUnits="userSpaceOnUse"><path
         id="path266"
         d="m 1238.94,4796.21 -86.76,47.25 c 1.71,0.54 4.41,0.72 7.2,1.17 l 86.67,-47.25 c -2.7,-0.36 -5.4,-0.54 -7.11,-1.17"
         inkscape:connector-curvature="0" /></clipPath><clipPath
       id="clipPath274"
       clipPathUnits="userSpaceOnUse"><path
         id="path276"
         d="m 0,0 0,4854 3139,0 L 3139,0 0,0 Z"
         inkscape:connector-curvature="0" /></clipPath><clipPath
       id="clipPath284"
       clipPathUnits="userSpaceOnUse"><path
         id="path286"
         d="m 825.391,3626.39 c 0.261,0.55 0.507,1.06 0.765,1.6 l 334.574,46.46 c 0,0 216.75,131.46 464.36,424.05 C 1398.14,3828.24 1183.31,3683.74 1170,3674.81 l -342.242,-48.09 -2.367,-0.33 m 360.559,110.71 c 277.6,351.56 339.98,496.29 352,529.48 1.54,4.23 2.25,6.65 2.49,7.45 23.77,45.29 39.08,86.89 47.46,125.1 62.73,285.83 -262.2,381.04 -334.2,399.06 -81.17,-127.72 -127.1,-213.44 -146.42,-284.1 -30.22,-110.47 4.63,-184.13 71.54,-323.94 39.43,-82.47 47.75,-172.12 41.46,-253.36 -2.3,-29.65 -6.54,-58.15 -11.93,-84.8 -7.59,-37.57 -17.47,-71.42 -27.38,-99.41 10.45,79.7 -0.23,207.19 -151.82,405.44 -160.111,209.34 -93.33,459.18 -76.771,590.22 -20.586,-26.68 -48.379,-66.65 -76.059,-113.93 38.211,65.75 73.051,111.35 77.321,116.99 l 291.379,53.31 12.1,2.22 c 46.22,5.48 90.9,8.16 133.53,8.16 89.93,0 170.9,-11.91 239.03,-34.53 159.58,-52.99 248.56,-164.73 216.48,-319.79 -12.05,-58.26 -41.18,-122.61 -90.08,-192.27 243.32,368.66 -36.08,500.84 -209.25,531.68 397.37,-447.79 -279.57,-1014.7 -360.88,-1062.98 m -361.118,420.98 c -23.949,30.41 -44.695,64.52 -51.91,113.79 -2.219,15.19 -3.164,30.7 -3.008,46.4 0.16,-12.56 1.125,-24.88 3.008,-36.86 8.223,-52.53 28.773,-89.96 51.91,-123.33"
         inkscape:connector-curvature="0" /></clipPath><radialGradient
       id="radialGradient288"
       spreadMethod="pad"
       gradientTransform="matrix(568.48,0,0,-568.48,1311.28,4220.68)"
       gradientUnits="userSpaceOnUse"
       r="1"
       cy="0"
       cx="0"
       fy="0"
       fx="0"><stop
         id="stop290"
         offset="0"
         style="stop-opacity:1;stop-color:#7fcc28" /><stop
         id="stop292"
         offset="1"
         style="stop-opacity:1;stop-color:#005d3c" /></radialGradient><clipPath
       id="clipPath300"
       clipPathUnits="userSpaceOnUse"><path
         id="path302"
         d="m 0,0 0,4854 3139,0 L 3139,0 0,0 Z"
         inkscape:connector-curvature="0" /></clipPath><clipPath
       id="clipPath316"
       clipPathUnits="userSpaceOnUse"><path
         id="path318"
         d="m 826.156,3627.99 c 49.207,102.55 77.063,181.53 90,244.07 34.469,166.56 -36.742,216.69 -91.324,286.02 -23.137,33.37 -43.687,70.8 -51.91,123.33 -1.883,11.98 -2.848,24.3 -3.008,36.86 0.238,24.15 3.078,48.74 7.895,73.34 17.207,87.9 59.605,175.75 98.511,242.7 27.68,47.28 55.473,87.25 76.059,113.93 -16.559,-131.04 -83.34,-380.88 76.771,-590.22 151.59,-198.25 162.27,-325.74 151.82,-405.44 -5.97,-16.87 -11.95,-31.6 -17.45,-43.75 1.34,1.69 2.69,3.38 4.03,5.05 6.24,7.85 12.36,15.57 18.4,23.22 81.31,48.28 758.25,615.19 360.88,1062.98 173.17,-30.84 452.57,-163.02 209.25,-531.68 -0.59,-0.84 -1.2,-1.72 -1.8,-2.56 -42.64,-60.27 -86.13,-116.06 -129.19,-167.34 -247.61,-292.59 -464.36,-424.05 -464.36,-424.05 l -334.574,-46.46"
         inkscape:connector-curvature="0" /></clipPath><radialGradient
       id="radialGradient320"
       spreadMethod="pad"
       gradientTransform="matrix(568.48,0,0,-568.48,1311.28,4220.68)"
       gradientUnits="userSpaceOnUse"
       r="1"
       cy="0"
       cx="0"
       fy="0"
       fx="0"><stop
         id="stop322"
         offset="0"
         style="stop-opacity:1;stop-color:#299735" /><stop
         id="stop324"
         offset="1"
         style="stop-opacity:1;stop-color:#004f32" /></radialGradient><clipPath
       id="clipPath332"
       clipPathUnits="userSpaceOnUse"><path
         id="path334"
         d="m 0,0 0,4854 3139,0 L 3139,0 0,0 Z"
         inkscape:connector-curvature="0" /></clipPath></defs><g
     id="g12"
     transform="matrix(0.13333333,0,0,-0.13333333,-1.0209727e-4,646.78188)"><g
       id="g14"
       transform="translate(0,3615)"><g
         id="g16"
         clip-path="url(#clipPath18)"><path
           inkscape:connector-curvature="0"
           d="m 567.09,1187.3 -67.5,41.58 c 0,0 -19.078,-2.07 -28.262,-4.23 l -0.719,0.36 -285.48,-46.17 86.762,-47.16 285.48,46.17 -10.621,5.76 20.34,3.69"
           style="fill:#002f1b;fill-opacity:1;fill-rule:nonzero;stroke:none"
           id="path22" /></g></g><g
       id="g24"
       transform="translate(0,3615)"><g
         id="g26"
         clip-path="url(#clipPath28)"><path
           inkscape:connector-curvature="0"
           d="M 480.328,82.4609 393.57,129.621 c 333.539,418.41 374.758,557.91 377.008,565.289 L 857.25,647.66 C 855.09,640.371 813.871,500.781 480.328,82.4609"
           style="fill:#002f1b;fill-opacity:1;fill-rule:nonzero;stroke:none"
           id="path32" /></g></g><g
       id="g34"
       transform="translate(0,3615)"><g
         id="g36"
         clip-path="url(#clipPath38)"><path
           inkscape:connector-curvature="0"
           d="m 857.262,647.691 -86.719,47.188 c 134.598,256.48 -2.031,396.351 -132.031,467.061 l 86.738,-47.18 C 855.23,1044.04 991.879,904.18 857.262,647.691"
           style="fill:#002f1b;fill-opacity:1;fill-rule:nonzero;stroke:none"
           id="path42" /></g></g><g
       id="g44"
       transform="translate(0,3615)"><g
         id="g46"
         clip-path="url(#clipPath48)"><path
           inkscape:connector-curvature="0"
           d="m 573.93,1180.46 -86.668,47.25 c 183.058,21.69 341.187,-0.54 448.468,-58.95 l 86.67,-47.16 c -107.189,58.32 -265.322,80.64 -448.47,58.86"
           style="fill:#002f1b;fill-opacity:1;fill-rule:nonzero;stroke:none"
           id="path52" /></g></g><g
       id="g54"
       transform="translate(0,3615)"><g
         id="g56"
         clip-path="url(#clipPath58)"><path
           inkscape:connector-curvature="0"
           d="m 564.496,1179 -86.726,47.17 9.453,1.5 86.718,-47.18 -9.445,-1.49"
           style="fill:#002f1b;fill-opacity:1;fill-rule:nonzero;stroke:none"
           id="path62" /></g></g><g
       id="g64"
       transform="translate(0,3615)"><g
         id="g66"
         clip-path="url(#clipPath68)"><path
           inkscape:connector-curvature="0"
           d="m 557.34,1177.83 -86.738,47.19 c 1.757,0.56 4.421,0.78 7.168,1.15 L 564.496,1179 c -2.742,-0.39 -5.398,-0.6 -7.156,-1.17"
           style="fill:#002f1b;fill-opacity:1;fill-rule:nonzero;stroke:none"
           id="path72" /></g></g><g
       id="g74"
       transform="translate(0,3615)"><g
         id="g76"
         clip-path="url(#clipPath78)"><path
           inkscape:connector-curvature="0"
           d="m 857.25,647.66 c 201.6,384.12 -205.199,506.7 -286.922,527.13 C 362.34,847.371 386.012,793.012 495.629,563.871 582.031,383.332 519.301,168.32 480.328,82.4609 813.871,500.781 855.09,640.371 857.25,647.66 m -283.32,532.8 c 459,54.54 761.4,-167.58 497.25,-540.991 C 803.789,261.648 502.648,59.0586 486.809,48.4414 L 142.199,0.0195312 C 381.422,497.27 119.609,441.559 89.7305,645.59 59.9414,849.531 261.27,1117.64 271.891,1131.68 l 285.48,46.17 c 1.707,0.54 4.41,0.72 7.109,1.17 l 9.45,1.44"
           style="fill:#005838;fill-opacity:1;fill-rule:nonzero;stroke:none"
           id="path82" /></g></g><g
       id="g84"
       transform="translate(0,3615)"><g
         id="g86"
         clip-path="url(#clipPath88)"><path
           inkscape:connector-curvature="0"
           d="m 143.82,7.94141 c 0.278,0.57812 0.539,1.1289 0.813,1.69921 L 479.16,56.0898 c 0,0 215.582,130.6722 462.363,421.6802 C 715.305,209 501.703,65.2617 488.43,56.3594 L 146.141,8.26953 143.82,7.94141 M 504.391,118.672 c 277.597,351.637 339.968,496.289 351.992,529.457 1.535,4.23 2.25,6.652 2.488,7.449 23.774,45.301 39.082,86.922 47.469,125.133 62.726,285.849 -262.215,381.099 -334.301,399.119 -81.5,-128.33 -127.453,-214.26 -146.605,-285.111 -29.731,-109.969 5.093,-183.61 71.816,-323.02 39.438,-82.449 47.754,-172.078 41.453,-253.328 -2.281,-29.41 -6.476,-57.73 -11.805,-84.191 -7.613,-37.809 -17.535,-71.86 -27.496,-100.008 10.446,79.758 -0.242,207.156 -151.824,405.398 -160.109,209.34 -93.418,459.18 -76.769,590.22 -20.414,-26.43 -47.907,-65.93 -75.356,-112.67 36.281,62.27 69.367,106.21 75.891,114.86 0.297,0.39 0.543,0.71 0.726,0.96 l 275.356,50.3 16.027,2.93 12.098,2.21 c 46.281,5.5 91.027,8.19 133.703,8.19 89.738,0 170.586,-11.88 238.617,-34.42 C 1107.53,1109.26 1196.58,997.578 1164.65,842.57 1152.64,784.289 1123.53,719.922 1074.64,650.219 1317.71,1018.64 1038.39,1150.8 865.262,1181.72 1262.63,733.84 585.707,167.012 504.391,118.672 M 143.27,539.66 c -23.95,30.43 -44.7036,64.559 -51.9184,113.852 -2.2188,15.187 -3.1641,30.699 -3.0078,46.398 0.1601,-12.558 1.125,-24.879 3.0078,-36.859 8.2226,-52.563 28.7734,-90.012 51.9184,-123.391"
           style="fill:url(#radialGradient92);fill-opacity:1;fill-rule:nonzero;stroke:none"
           id="path98" /></g></g><g
       id="g100"
       transform="translate(0,3615)"><g
         id="g102"
         clip-path="url(#clipPath104)"><path
           inkscape:connector-curvature="0"
           d="M 138.871,8.83984 C 268.445,277.77 247.797,382.52 198.957,461.422 232,415.148 254.57,357.578 234.465,253.02 221.477,190.59 193.656,111.809 144.633,9.64062 l -5.762,-0.80078"
           style="fill:#53abce;fill-opacity:1;fill-rule:nonzero;stroke:none"
           id="path108" /><path
           inkscape:connector-curvature="0"
           d="M 234.465,253.02 C 254.57,357.578 232,415.148 198.957,461.422 182.086,488.68 161.84,512.871 143.27,539.66 197.922,470.219 269.234,420.07 234.465,253.02"
           style="fill:#004b2f;fill-opacity:1;fill-rule:nonzero;stroke:none"
           id="path110" /><path
           inkscape:connector-curvature="0"
           d="m 485.977,95.4297 c 4.109,9.8403 8.382,20.9223 12.632,33.0503 -0.617,-4.199 -1.285,-8.261 -1.988,-12.179 -0.223,-0.629 -0.035,-0.949 0.535,-0.949 1.086,0.007 3.555,1.128 7.235,3.32 -6.039,-7.652 -12.168,-15.391 -18.414,-23.2423"
           style="fill:#002a18;fill-opacity:1;fill-rule:nonzero;stroke:none"
           id="path112" /><path
           inkscape:connector-curvature="0"
           d="m 481.949,90.3789 c 5.504,12.1721 11.485,26.9221 17.453,43.7931 -0.25,-1.922 -0.515,-3.82 -0.793,-5.692 -4.25,-12.128 -8.523,-23.21 -12.632,-33.0503 -1.336,-1.668 -2.684,-3.3594 -4.028,-5.0508 M 941.523,477.77 c 43.711,51.921 87.887,108.519 131.187,169.71 0.64,0.911 1.29,1.829 1.93,2.739 -13.06,-19.789 -27.62,-40.25 -43.78,-61.418 C 1000.85,549.48 970.961,512.48 941.523,477.77"
           style="fill:#004b2f;fill-opacity:1;fill-rule:nonzero;stroke:none"
           id="path114" /><path
           inkscape:connector-curvature="0"
           d="M 90.2305,738.621 C 100.223,832.859 147.766,935.91 195.453,1017.12 156.305,949.941 113.434,861.422 96.168,772.891 93.7617,761.449 91.7578,750 90.2305,738.621"
           style="fill:#53abce;fill-opacity:1;fill-rule:nonzero;stroke:none"
           id="path116" /><path
           inkscape:connector-curvature="0"
           d="m 88.3438,699.91 c -0.1641,12.68 0.496,25.602 1.8867,38.711 1.5273,11.379 3.5312,22.828 5.9375,34.27 -4.7735,-24.481 -7.586,-48.95 -7.8242,-72.981"
           style="fill:#004b2f;fill-opacity:1;fill-rule:nonzero;stroke:none"
           id="path118" /></g></g><g
       id="g120"
       transform="translate(0,3615)"><g
         id="g122"
         clip-path="url(#clipPath124)"><path
           inkscape:connector-curvature="0"
           d="M 144.633,9.64062 C 193.656,111.809 221.477,190.59 234.465,253.02 c 34.769,167.05 -36.543,217.199 -91.195,286.64 -23.145,33.379 -43.6958,70.828 -51.9184,123.391 -1.8828,11.98 -2.8477,24.301 -3.0078,36.859 0.2382,24.031 3.0507,48.5 7.8242,72.981 17.266,88.531 60.137,177.05 99.285,244.229 27.449,46.74 54.942,86.24 75.356,112.67 C 254.16,998.75 187.469,748.91 347.578,539.57 499.16,341.328 509.848,213.93 499.402,134.172 c -5.968,-16.871 -11.949,-31.621 -17.453,-43.7931 1.344,1.6914 2.692,3.3828 4.028,5.0508 6.246,7.8513 12.375,15.5903 18.414,23.2423 81.316,48.34 758.239,615.168 360.871,1063.048 173.128,-30.92 452.448,-163.08 209.378,-531.501 -0.64,-0.91 -1.29,-1.828 -1.93,-2.739 C 1029.41,586.289 985.234,529.691 941.523,477.77 694.742,186.762 479.16,56.0898 479.16,56.0898 L 144.633,9.64062"
           style="fill:url(#radialGradient128);fill-opacity:1;fill-rule:nonzero;stroke:none"
           id="path134" /></g></g><path
       inkscape:connector-curvature="0"
       d="m 683.539,4749.59 c 0,0 130.168,-72.54 139.582,-200.84 12.93,-176.238 -140.41,-412.91 -283.742,-612.91 l 7.5,-108.32 c 0,0 294.18,397.48 310.012,439.98 15.828,42.5 69.16,173.34 16.66,290.84 -52.5,117.5 -190.012,191.25 -190.012,191.25"
       style="fill:#002f1b;fill-opacity:1;fill-rule:nonzero;stroke:none"
       id="path144" /><path
       inkscape:connector-curvature="0"
       d="m 271.871,4746.71 -86.73,47.17 C 174.547,4779.78 -26.7812,4511.762 3.00391,4307.75 l 0.76171,-0.41 -0.76171,0.41 c 0.58593,-4 1.29687,-7.891 2.05859,-11.699 0.24609,-1.653 0.5,-3.18 0.77344,-4.371 l 0.20312,-0.301 C 47.0352,4106.441 288.031,4145.66 55.5234,3662.1797 L 142.242,3615 C 381.383,4112.281 119.605,4056.578 89.7422,4260.559 59.957,4464.57 261.273,4732.59 271.871,4746.71"
       style="fill:#002f1b;fill-opacity:1;fill-rule:nonzero;stroke:none"
       id="path146" /><path
       inkscape:connector-curvature="0"
       d="m 1235.51,4014.289 c 5.6,-1.277 15.07,-1.277 22.82,-1.277 59.88,-0.434 99.08,32.297 99.08,101.656 0,62.461 -35.32,92.184 -92.18,92.184 -14.21,0 -24.12,-1.301 -29.72,-2.59 l 0,-189.973 z m -65.49,236.492 c 24.14,4.309 55.58,6.457 88.31,6.457 55.57,0 91.75,-9.039 119.33,-30.148 30.15,-22.399 49.1,-58.578 49.1,-110.281 0,-55.559 -20.24,-93.887 -47.81,-117.59 -30.59,-25.41 -77.54,-37.469 -134.39,-37.469 -34.04,0 -58.59,2.148 -74.54,4.301 l 0,284.73"
       style="fill:#231f20;fill-opacity:1;fill-rule:nonzero;stroke:none"
       id="path148" /><path
       inkscape:connector-curvature="0"
       d="m 1457.29,3964.762 65.4805,0 0,290.328 -65.4805,0 0,-290.328 z"
       style="fill:#231f20;fill-opacity:1;fill-rule:nonzero;stroke:none"
       id="path150" /><path
       inkscape:connector-curvature="0"
       d="m 1631.72,4126.301 25.85,0 c 32.74,0 52.12,16.359 52.12,41.777 0,26.274 -18.09,40.063 -48.24,40.063 -15.94,0 -24.99,-0.86 -29.73,-2.153 l 0,-79.687 z m -65.04,124.48 c 21.11,3.887 52.12,6.457 87.45,6.457 43.07,0 73.23,-6.457 93.9,-23.258 17.66,-13.781 27.14,-34.019 27.14,-60.73 0,-36.609 -26.28,-62.031 -51.26,-71.07 l 0,-1.301 c 20.25,-8.188 31.45,-27.129 38.76,-53.84 9.05,-33.18 17.67,-71.078 23.26,-82.277 l -67.19,0 c -4.31,8.187 -11.64,31.879 -19.82,67.629 -8.18,36.609 -20.67,46.089 -47.81,46.519 l -19.39,0 0,-114.148 -65.04,0 0,286.019"
       style="fill:#231f20;fill-opacity:1;fill-rule:nonzero;stroke:none"
       id="path152" /><path
       inkscape:connector-curvature="0"
       d="m 1981.88,4087.531 -106.83,0 0,-68.922 119.32,0 0,-53.847 -184.79,0 0,290.328 178.76,0 0,-53.84 -113.29,0 0,-60.32 106.83,0 0,-53.399"
       style="fill:#231f20;fill-opacity:1;fill-rule:nonzero;stroke:none"
       id="path154" /><path
       inkscape:connector-curvature="0"
       d="m 2239.01,3972.52 c -11.63,-5.61 -39.2,-12.489 -74.09,-12.489 -100.36,0 -152.05,62.891 -152.05,146.02 0,99.07 70.64,153.781 158.51,153.781 34.04,0 59.87,-6.891 71.51,-12.922 l -13.78,-51.699 c -12.93,5.609 -31.45,10.777 -55.14,10.777 -51.69,0 -92.19,-31.437 -92.19,-96.5 0,-58.148 34.47,-94.769 92.62,-94.769 20.24,0 41.78,3.89 55.14,9.492 l 9.47,-51.691"
       style="fill:#231f20;fill-opacity:1;fill-rule:nonzero;stroke:none"
       id="path156" /><path
       inkscape:connector-curvature="0"
       d="m 2325.97,4199.961 -78.4,0 0,55.129 223.13,0 0,-55.129 -79.26,0 0,-235.199 -65.47,0 0,235.199"
       style="fill:#231f20;fill-opacity:1;fill-rule:nonzero;stroke:none"
       id="path158" /><path
       inkscape:connector-curvature="0"
       d="m 2493.06,3964.762 65.4805,0 0,290.328 -65.4805,0 0,-290.328 z"
       style="fill:#231f20;fill-opacity:1;fill-rule:nonzero;stroke:none"
       id="path160" /><path
       inkscape:connector-curvature="0"
       d="m 2728.66,4012.148 c 44.37,0 69.78,41.774 69.78,98.641 0,52.121 -24.55,96.922 -69.78,96.922 -45.23,0 -70.65,-43.941 -70.65,-98.223 0,-54.699 26.28,-97.34 70.22,-97.34 l 0.43,0 z m -3.02,-52.117 c -85.71,0 -136.54,65.047 -136.54,147.739 0,87.011 55.99,152.062 141.29,152.062 89.16,0 137.84,-66.773 137.84,-146.883 0,-95.629 -57.3,-152.918 -142.15,-152.918 l -0.44,0"
       style="fill:#231f20;fill-opacity:1;fill-rule:nonzero;stroke:none"
       id="path162" /><path
       inkscape:connector-curvature="0"
       d="m 2898.33,3964.762 0,290.328 76.67,0 60.31,-106.399 c 17.22,-30.582 34.03,-66.761 47.38,-99.492 l 0.86,0 c -3.88,38.332 -5.17,77.531 -5.17,121.461 l 0,84.43 60.31,0 0,-290.328 -68.92,0 -62.03,112 c -17.23,31.437 -36.61,68.488 -50.4,102.508 l -1.72,0 c 2.15,-38.758 3.02,-79.68 3.02,-127.071 l 0,-87.437 -60.31,0"
       style="fill:#231f20;fill-opacity:1;fill-rule:nonzero;stroke:none"
       id="path164" /><path
       inkscape:connector-curvature="0"
       d="m 1171.53,3727.93 c 12.15,-6.371 31.58,-12.758 51.34,-12.758 21.26,0 32.51,8.808 32.51,22.476 0,12.461 -9.73,20.063 -34.34,28.563 -34.02,12.148 -56.5,30.988 -56.5,61.07 0,34.93 29.47,61.367 77.46,61.367 23.4,0 40.1,-4.558 52.26,-10.328 l -10.33,-37.07 c -7.9,3.949 -22.79,9.719 -42.54,9.719 -20.05,0 -29.76,-9.41 -29.76,-19.739 0,-13.07 11.24,-18.839 37.96,-29.16 36.16,-13.379 52.88,-32.211 52.88,-61.379 0,-34.3316 -26.14,-63.4918 -82.34,-63.4918 -23.39,0 -46.48,6.3711 -58.03,12.7617 l 9.43,37.9691"
       style="fill:#005d3b;fill-opacity:1;fill-rule:nonzero;stroke:none"
       id="path166" /><path
       inkscape:connector-curvature="0"
       d="m 1502.97,3680.5391 0,83.8519 -64.7,120.91 53.16,0 20.65,-49.211 c 6.38,-14.891 10.94,-25.828 15.81,-39.199 l 0.6,0 c 4.56,12.769 9.43,24.609 15.5,39.199 l 20.65,49.211 51.95,0 -67.44,-119.391 0,-85.3709 -46.18,0"
       style="fill:#005d3b;fill-opacity:1;fill-rule:nonzero;stroke:none"
       id="path168" /><path
       inkscape:connector-curvature="0"
       d="m 1753.07,3727.93 c 12.15,-6.371 31.59,-12.758 51.34,-12.758 21.27,0 32.51,8.808 32.51,22.476 0,12.461 -9.73,20.063 -34.33,28.563 -34.03,12.148 -56.51,30.988 -56.51,61.07 0,34.93 29.47,61.367 77.47,61.367 23.4,0 40.11,-4.558 52.26,-10.328 l -10.34,-37.07 c -7.9,3.949 -22.78,9.719 -42.53,9.719 -20.04,0 -29.77,-9.41 -29.77,-19.739 0,-13.07 11.24,-18.839 37.98,-29.16 36.15,-13.379 52.86,-32.211 52.86,-61.379 0,-34.3316 -26.12,-63.4918 -82.34,-63.4918 -23.38,0 -46.47,6.3711 -58.02,12.7617 l 9.42,37.9691"
       style="fill:#005d3b;fill-opacity:1;fill-rule:nonzero;stroke:none"
       id="path170" /><path
       inkscape:connector-curvature="0"
       d="m 2076.93,3846.41 -55.29,0 0,38.891 157.36,0 0,-38.891 -55.9,0 0,-165.8709 -46.17,0 0,165.8709"
       style="fill:#005d3b;fill-opacity:1;fill-rule:nonzero;stroke:none"
       id="path172" /><path
       inkscape:connector-curvature="0"
       d="m 2446.96,3767.129 -75.34,0 0,-48.617 84.15,0 0,-37.9729 -130.34,0 0,204.7619 126.09,0 0,-37.981 -79.9,0 0,-42.531 75.34,0 0,-37.66"
       style="fill:#005d3b;fill-opacity:1;fill-rule:nonzero;stroke:none"
       id="path174" /><path
       inkscape:connector-curvature="0"
       d="m 2782.06,3758.922 c -0.92,24.609 -1.83,54.078 -1.83,84.148 l -0.61,0 c -6.69,-26.121 -15.19,-55.289 -23.09,-79.281 l -24.91,-79.9101 -36.16,0 -21.86,78.9921 c -6.69,24.309 -13.37,53.16 -18.54,80.199 l -0.6,0 c -0.92,-27.64 -2.13,-59.242 -3.35,-84.75 l -3.95,-77.7809 -42.83,0 13.06,204.7619 61.67,0 20.06,-68.66 c 6.68,-23.391 12.75,-48.911 17.31,-72.911 l 1.21,0 c 5.47,23.7 12.46,50.43 19.44,73.508 l 21.58,68.063 60.76,0 10.94,-204.7619 -44.96,0 -3.34,78.3829"
       style="fill:#005d3b;fill-opacity:1;fill-rule:nonzero;stroke:none"
       id="path176" /><path
       inkscape:connector-curvature="0"
       d="m 2988.95,3727.93 c 12.15,-6.371 31.59,-12.758 51.34,-12.758 21.27,0 32.51,8.808 32.51,22.476 0,12.461 -9.73,20.063 -34.33,28.563 -34.03,12.148 -56.51,30.988 -56.51,61.07 0,34.93 29.47,61.367 77.47,61.367 23.4,0 40.11,-4.558 52.25,-10.328 l -10.33,-37.07 c -7.9,3.949 -22.78,9.719 -42.53,9.719 -20.05,0 -29.77,-9.41 -29.77,-19.739 0,-13.07 11.24,-18.839 37.98,-29.16 36.15,-13.379 52.86,-32.211 52.86,-61.379 0,-34.3316 -26.13,-63.4918 -82.34,-63.4918 -23.38,0 -46.47,6.3711 -58.02,12.7617 l 9.42,37.9691"
       style="fill:#005d3b;fill-opacity:1;fill-rule:nonzero;stroke:none"
       id="path178" /></g></svg>